Coordinates
version=1
nRows=6
nColumns=63
inDegrees=yes

Units are S.I. units (second, meters, Newtons, ...)
If the header above contains a line with 'inDegrees', this indicates whether rotational values are in degrees (yes) or radians (no).

endheader
time	pelvis_tilt	pelvis_list	pelvis_rotation	pelvis_tx	pelvis_ty	pelvis_tz	hip_flexion_r	hip_adduction_r	hip_rotation_r	knee_angle_r	knee_angle_r_beta	ankle_angle_r	subtalar_angle_r	mtp_angle_r	hip_flexion_l	hip_adduction_l	hip_rotation_l	knee_angle_l	knee_angle_l_beta	ankle_angle_l	subtalar_angle_l	mtp_angle_l	L5_S1_Flex_Ext	L5_S1_Lat_Bending	L5_S1_axial_rotation	L4_L5_Flex_Ext	L4_L5_Lat_Bending	L4_L5_axial_rotation	L3_L4_Flex_Ext	L3_L4_Lat_Bending	L3_L4_axial_rotation	L2_L3_Flex_Ext	L2_L3_Lat_Bending	L2_L3_axial_rotation	L1_L2_Flex_Ext	L1_L2_Lat_Bending	L1_L2_axial_rotation	L1_T12_Flex_Ext	L1_T12_Lat_Bending	L1_T12_axial_rotation	Abs_r3	Abs_r2	Abs_r1	Abs_t1	Abs_t2	neck_flexion	neck_bending	neck_rotation	arm_flex_r	arm_add_r	arm_rot_r	elbow_flex_r	pro_sup_r	wrist_flex_r	wrist_dev_r	arm_flex_l	arm_add_l	arm_rot_l	elbow_flex_l	pro_sup_l	wrist_flex_l	wrist_dev_l
      0.00000000	     -0.02187809	     -6.33037033	     96.52743032	     -0.11977855	      0.80184528	      0.62865435	      5.33334889	     -4.72869132	    -13.46739602	     16.90883311	      0.29511481	     35.71690897	      8.18408085	      0.00000000	      4.62111438	      1.25723353	     -4.24475618	     10.46532406	      0.18265436	     34.32195724	     14.22767307	      0.00000000	     -0.06414718	      0.06793928	     -0.79413806	     -0.11912772	      0.09035925	     -0.84377169	     -0.10538739	      0.16518757	     -0.84377169	     -0.07331381	      0.16518757	     -0.69487080	     -0.05956707	      0.13854179	     -0.64523717	     -0.03665370	      0.10523795	     -0.59560354	     -0.45819686	      0.76854277	     -4.41675763	      0.00000000	      0.00000000	     27.80699039	     -2.02201138	      2.80108294	      5.95677924	    -14.53509559	    119.99767915	      8.11893918	      7.69995681	     -6.81271677	     -8.92593006	     12.01082510	    -11.76518705	    115.79845373	     13.40933033	     13.18396441	     -3.78958498	     -1.55865783
      0.02222222	      0.01613205	     -6.31269176	     96.50486684	     -0.11981732	      0.80096339	      0.62756916	      5.12226015	     -4.66873604	    -13.48134470	     16.92899718	      0.29546674	     35.72880073	      8.19193613	      0.00000000	      4.36818994	      1.20719857	     -4.36200452	     10.66853332	      0.18620103	     33.78451816	     14.24650290	      0.00000000	     -0.04002267	      0.06970363	     -0.81128283	     -0.07432609	      0.09270583	     -0.86198801	     -0.06575324	      0.16947740	     -0.86198801	     -0.04574190	      0.16947740	     -0.70987248	     -0.03716505	      0.14213964	     -0.65916730	     -0.02286895	      0.10797092	     -0.60846212	     -0.28587790	      0.78850138	     -4.51211173	      0.00000000	      0.00000000	     27.87238680	     -1.98749220	      2.77584981	      5.73126110	    -14.62478190	    120.10811445	      8.16534826	      7.69268917	     -6.80521869	     -8.97652540	     12.03137487	    -11.71419290	    115.94012488	     13.52225829	     13.27822638	     -3.75285922	     -1.66380689
      0.04444444	      0.05538995	     -6.02203705	     96.83386194	     -0.11975297	      0.80079781	      0.62715081	      4.39313791	     -4.50149682	    -13.90813069	     16.37359703	      0.28577318	     35.57072526	      8.34935748	      0.00000000	      4.08300481	      1.08250566	     -4.71488697	     11.07221750	      0.19324665	     33.57279431	     14.61708801	      0.00000000	     -0.07980067	      0.06474581	     -0.87752642	     -0.14819783	      0.08611192	     -0.93237182	     -0.13110452	      0.15742295	     -0.93237182	     -0.09120419	      0.15742295	     -0.76783561	     -0.07410290	      0.13202965	     -0.71299021	     -0.04559810	      0.10029125	     -0.65814481	     -0.57000821	      0.73241750	     -4.88053867	      0.00000000	      0.00000000	     27.90223337	     -1.72924852	      2.63168573	      5.65626603	    -14.56627623	    120.95399017	      8.02595719	      7.55283954	     -6.75662284	     -9.94140731	     12.43211748	    -11.95294319	    117.63116478	     13.86079074	     14.43356284	     -3.64801062	     -2.75690583
      0.06666667	      0.12995950	     -6.05969910	     97.31509302	     -0.12031102	      0.80049912	      0.62678708	      4.23746031	     -4.59328423	    -15.47961406	     16.39233747	      0.28610026	     35.96486662	      9.92007346	      0.00000000	      4.14300091	      0.95606911	     -5.07563164	     11.29958663	      0.19721499	     33.60249519	     15.61720460	      0.00000000	     -0.06213126	      0.06811517	     -0.92318916	     -0.11538395	      0.09059317	     -0.98088849	     -0.10207544	      0.16561522	     -0.98088849	     -0.07100981	      0.16561522	     -0.80779052	     -0.05769508	      0.13890045	     -0.75009120	     -0.03550180	      0.10551039	     -0.69239187	     -0.44379734	      0.77053239	     -5.13450117	      0.00000000	      0.00000000	     27.90370054	     -1.83833936	      2.33663542	      5.47891892	    -14.20079551	    127.50850910	      6.83765563	      4.31994196	     -6.42038361	    -10.09050625	     13.10222440	    -11.32904632	    126.92490000	     13.36867775	      8.20157573	     -3.16703138	     -3.57501670
      0.08888889	      0.17570772	     -6.07913469	     97.51362522	     -0.12031837	      0.80040759	      0.62676000	      4.16741736	     -4.54934332	    -15.83343410	     16.34640195	      0.28529853	     36.12010843	     10.28981098	      0.00000000	      4.14475676	      0.96519106	     -4.40912383	     11.28411703	      0.19694500	     33.58254846	     14.93498009	      0.00000000	     -0.05545220	      0.06438643	     -0.96449872	     -0.10298027	      0.08563395	     -1.02477989	     -0.09110241	      0.15654916	     -1.02477989	     -0.06337632	      0.15654916	     -0.84393638	     -0.05149291	      0.13129680	     -0.78365521	     -0.03168539	      0.09973457	     -0.72337404	     -0.39608949	      0.72835213	     -5.36425256	      0.00000000	      0.00000000	     27.90665504	     -1.71798487	      2.24244009	      5.37585280	    -14.53857408	    121.48146598	      7.98112169	      6.28047863	     -6.67781138	    -10.63066809	     12.78760130	    -11.69708033	    123.09459115	     13.77975371	     11.76538642	     -3.86763800	     -3.10639482
      0.11111111	      0.09050115	     -5.97344470	     97.42776194	     -0.12011271	      0.80071130	      0.62648802	      3.99313268	     -4.47000151	    -15.00576907	     16.19394507	      0.28263766	     36.04710323	      9.34898660	      0.00000000	      3.86597793	      1.13962086	     -3.57733851	     10.96936459	      0.19145153	     33.41037124	     13.69422956	      0.00000000	     -0.06965553	      0.04858688	     -0.96319008	     -0.12935729	      0.06462055	     -1.02338946	     -0.11443708	      0.11813413	     -1.02338946	     -0.07960931	      0.11813413	     -0.84279132	     -0.06468213	      0.09907836	     -0.78259194	     -0.03980117	      0.07526107	     -0.72239256	     -0.49754251	      0.54962448	     -5.35697429	      0.00000000	      0.00000000	     27.89550168	     -1.52901641	      2.06763797	      5.35613763	    -14.44408391	    120.63173126	      7.90350589	      9.07734920	     -7.36341421	    -10.77629043	     12.53932131	    -11.83519544	    122.05370201	     13.74409080	     13.14015057	     -3.86022929	     -2.76263632
